<?xml version="1.0" standalone="no"?><!DOCTYPE svg PUBLIC "-//W3C//DTD SVG 1.1//EN" "http://www.w3.org/Graphics/SVG/1.1/DTD/svg11.dtd"><svg t="1717342829605" class="icon" viewBox="0 0 1024 1024" version="1.1" xmlns="http://www.w3.org/2000/svg" p-id="1766" xmlns:xlink="http://www.w3.org/1999/xlink" width="200" height="200"><path d="M805.13 341.144c42.932-0.02 81.54 26.169 97.374 66.105l78.526 197.783v312.32a104.77 104.77 0 0 1-104.751 104.752H142.886a104.77 104.77 0 0 1-104.77-104.77V609.146l78.734-201.405a104.77 104.77 0 0 1 97.602-66.636l590.677 0.019zM328.115 629.21H90.51v288.123c0 26.548 19.892 48.925 46.27 52.016l6.106 0.379h733.393c26.567-0.019 48.924-19.911 52.015-46.27l0.38-6.125V629.23H691.066a183.353 183.353 0 0 1-362.932 0zM805.13 393.5H214.433a52.376 52.376 0 0 0-46.08 27.497l-2.73 5.802-58.672 150.054h239.825l-0.057 0.626a26.302 26.302 0 0 1 31.896 25.562 130.958 130.958 0 1 0 261.916 0c0-13.994 10.998-25.543 24.993-26.188h247.94l-59.6-150.281a52.376 52.376 0 0 0-42.325-32.692l-6.41-0.38zM534.414 0.626c12.649 0 23.495 9.045 25.77 21.485l0.418 4.722v206.525a26.188 26.188 0 0 1-51.958 4.722l-0.437-4.722V26.833c0-14.47 11.738-26.188 26.207-26.188zM213.182 7.699l3.147 3.565 152.5 206.507a26.188 26.188 0 0 1-38.987 34.607l-3.13-3.49-152.5-206.506a26.188 26.188 0 0 1 38.97-34.645zM890.88 5.708c10.183 7.51 13.559 21.22 8.021 32.578l-2.465 4.04L744.41 248.831a26.188 26.188 0 0 1-44.62-27.08l2.409-4.038L854.263 11.283a26.188 26.188 0 0 1 36.674-5.613l-0.057 0.038z" p-id="1767" fill="#cbd5e1"></path></svg>